HIERARCHY
ROOT Hips
{
	OFFSET -3.958830 18.904000 13.208200
	CHANNELS 6 Xposition Yposition Zposition Zrotation Yrotation Xrotation 
	JOINT LHipJoint
	{
		OFFSET 0.000000 0.000000 0.000000
		CHANNELS 3 Zrotation Yrotation Xrotation
		JOINT LeftUpLeg
		{
			OFFSET 1.800000 -1.400000 0.085000
			CHANNELS 3 Zrotation Yrotation Xrotation
			JOINT LeftLeg
			{
				OFFSET 2.215000 -6.000000 0.000000
				CHANNELS 3 Zrotation Yrotation Xrotation
				JOINT LeftFoot
				{
					OFFSET 2.500000 -6.900000 0.000000
					CHANNELS 3 Zrotation Yrotation Xrotation
					JOINT LeftToeBase
					{
						OFFSET 0.200000 -0.500000 1.950000
						CHANNELS 3 Zrotation Yrotation Xrotation
						End Site
						{
							OFFSET 0.000000 0.000000 0.000000
						}
					}
				}
			}
		}
	}
	JOINT RHipJoint
	{
		OFFSET 0.000000 0.000000 0.000000
		CHANNELS 3 Zrotation Yrotation Xrotation
		JOINT RightUpLeg
		{
			OFFSET -1.800000 -1.400000 0.085000
			CHANNELS 3 Zrotation Yrotation Xrotation
			JOINT RightLeg
			{
				OFFSET -2.215000 -6.000000 0.000000
				CHANNELS 3 Zrotation Yrotation Xrotation
				JOINT RightFoot
				{
					OFFSET -2.500000 -6.900000 0.000000
					CHANNELS 3 Zrotation Yrotation Xrotation
					JOINT RightToeBase
					{
						OFFSET -0.200000 -0.500000 1.950000
						CHANNELS 3 Zrotation Yrotation Xrotation
						End Site
						{
							OFFSET 0.000000 0.000000 0.000000
						}
					}
				}
			}
		}
	}
	JOINT LowerBack
	{
		OFFSET 0.000000 0.000000 0.000000
		CHANNELS 3 Zrotation Yrotation Xrotation
		JOINT Spine
		{
			OFFSET -0.087000 1.940000 -0.288900
			CHANNELS 3 Zrotation Yrotation Xrotation
			JOINT Spine1
			{
				OFFSET 0.000000 1.950000 0.060000
				CHANNELS 3 Zrotation Yrotation Xrotation
				JOINT Neck
				{
					OFFSET 0.000000 0.000000 0.000000
					CHANNELS 3 Zrotation Yrotation Xrotation
					JOINT Neck1
					{
						OFFSET 0.000000 1.600000 0.340000
						CHANNELS 3 Zrotation Yrotation Xrotation
						JOINT Head
						{
							OFFSET 0.000000 1.667000 -0.240000
							CHANNELS 3 Zrotation Yrotation Xrotation
							End Site
							{
								OFFSET 0.000000 0.000000 0.000000
							}
						}
					}
				}
				JOINT LeftShoulder
				{
					OFFSET 0.000000 0.000000 0.000000
					CHANNELS 3 Zrotation Yrotation Xrotation
					JOINT LeftArm
					{
						OFFSET 2.700000 1.550000 -0.730000
						CHANNELS 3 Zrotation Yrotation Xrotation
						JOINT LeftForeArm
						{
							OFFSET 5.450000 0.000000 0.000000
							CHANNELS 3 Zrotation Yrotation Xrotation
							JOINT LeftHand
							{
								OFFSET 3.450000 0.000000 0.000000
								CHANNELS 3 Zrotation Yrotation Xrotation
								JOINT LeftHandIndex1
								{
									OFFSET 0.750000 0.000000 0.000000
									CHANNELS 3 Zrotation Yrotation Xrotation
									End Site
									{
										OFFSET 0.000000 0.000000 0.000000
									}
								}
							}
						}
					}
				}
				JOINT RightShoulder
				{
					OFFSET 0.000000 0.000000 0.000000
					CHANNELS 3 Zrotation Yrotation Xrotation
					JOINT RightArm
					{
						OFFSET -2.700000 1.550000 -0.730000
						CHANNELS 3 Zrotation Yrotation Xrotation
						JOINT RightForeArm
						{
							OFFSET -5.450000 0.000000 0.000000
							CHANNELS 3 Zrotation Yrotation Xrotation
							JOINT RightHand
							{
								OFFSET -3.450000 0.000000 0.000000
								CHANNELS 3 Zrotation Yrotation Xrotation
								JOINT RightHandIndex1
								{
									OFFSET -0.750000 0.000000 0.000000
									CHANNELS 3 Zrotation Yrotation Xrotation
									End Site
									{
										OFFSET 0.000000 0.000000 0.000000
									}
								}
							}
						}
					}
				}
			}
		}
	}
}
MOTION
Frames: 14
Frame Time: 0.016667
4.612230 16.097060 -0.733180 -5.038546 9.891833 1.492531 -15.181999 12.702584 3.124892 10.084808 -5.959498 -28.239277 1.296168 5.431785 33.283834 -1.164986 5.671601 2.265293 0.475710 0.321220 0.415140 18.377554 -9.338084 4.282564 -7.354563 5.274942 -42.181132 2.055997 -1.472270 -2.482743 -0.037338 -1.105207 3.732802 0.431460 0.151930 0.121060 -3.880173 -2.162065 -8.487306 10.875177 -5.380920 21.495710 -9.345138 -1.109993 18.211565 5.350600 -1.996439 -14.498578 -5.799422 4.344726 35.216509 -1.942150 3.110460 -25.753250 -20.570843 -32.133658 8.702288 -40.956310 -22.015944 -14.287987 34.878315 -44.117951 -20.228459 -3.658322 2.386790 0.915520 -0.001650 0.168700 -0.024890 10.021673 33.989005 10.611001 59.350424 18.191873 -13.450222 -15.412489 34.587770 -8.549776 1.557182 -1.083929 -0.471170 0.619670 0.253350 -0.375360 
4.526290 16.146820 -0.686050 -3.972332 11.098331 -0.181733 -15.297581 13.238062 3.141454 9.765482 -6.062268 -25.957197 1.416659 5.221237 32.032278 -1.178365 5.570733 2.357116 0.294490 0.059290 0.361910 18.157350 -9.541576 3.987132 -11.729425 3.023309 -40.953727 1.968654 -2.408226 3.406224 -0.006217 -1.329718 3.667119 0.274140 0.198420 0.113610 -3.424032 -2.922539 -8.431853 7.245913 -4.809910 24.265095 -5.952008 -1.708162 15.749332 4.118923 -1.695641 -14.319194 -5.761883 3.478603 36.828914 -3.354080 3.267400 -25.259480 -20.958367 -30.661702 8.163468 -40.738060 -19.888208 -15.260865 33.223953 -51.681750 -22.211054 -3.636311 2.214869 0.970300 0.015030 0.126620 -0.089360 12.909539 32.297706 11.122501 57.437166 14.045662 -14.980522 -11.165836 37.095345 -7.231522 1.581578 -0.941095 -0.550330 0.623890 0.343950 -0.413910 
4.431580 16.184730 -0.638960 -3.941528 11.988818 -0.676378 -15.328816 13.454918 3.129668 10.585183 -5.869471 -25.144503 1.095271 5.270319 30.352541 -1.118769 5.421116 2.454265 0.150950 -0.106610 0.246730 18.089974 -9.769547 3.725690 -14.781970 1.556150 -40.641947 1.605591 -3.485645 10.168936 0.041455 -1.810544 3.518486 0.160750 0.291420 0.134120 -3.294750 -3.140176 -8.303592 6.083899 -4.631394 24.834764 -4.043126 -2.264617 12.959718 3.078362 -1.116199 -13.250321 -4.626516 2.808129 36.281104 -3.879980 3.656700 -20.907690 -18.309023 -27.281917 7.134625 -41.164631 -18.376809 -14.420827 25.805657 -59.618882 -20.871803 -3.651943 2.290573 0.867790 0.106260 0.025690 -0.106000 12.341458 27.897360 10.367390 58.330076 11.833120 -14.590562 -3.598972 38.848008 -4.925882 1.661968 -0.967840 -0.546780 0.555830 0.399560 -0.383560 
4.348020 16.235850 -0.574720 -4.900764 11.770239 -0.288945 -15.299744 13.494540 3.070767 12.451495 -5.287238 -24.736566 0.004593 5.654557 28.197574 -1.114985 5.373035 2.519351 0.024650 -0.258390 0.142700 18.116748 -9.940050 3.542465 -16.432057 1.037977 -40.017951 1.584041 -4.368961 15.105516 0.085277 -2.329499 3.355473 0.094930 0.416260 0.139490 -3.365107 -3.084870 -8.163919 7.218299 -4.424948 23.857250 -2.994990 -2.225775 10.456444 2.237448 -1.019530 -11.949271 -4.144880 2.538849 34.020136 -4.022560 3.942130 -17.019740 -14.411401 -22.432098 5.779371 -42.725616 -18.846215 -11.302723 13.029911 -63.452786 -14.276315 -3.776310 2.461909 0.780830 0.207260 -0.084000 -0.104260 10.078933 22.372562 8.958249 59.985930 10.447104 -12.997365 4.067567 37.645118 -2.322045 1.744545 -1.006775 -0.589890 0.547430 0.457630 -0.360460 
4.258100 16.293540 -0.512410 -6.415370 11.162338 0.408253 -15.246181 13.408982 3.075452 15.007052 -4.680062 -24.710895 -1.517700 6.184469 26.098059 -0.979051 5.285333 2.590018 -0.003540 -0.242480 0.075700 18.171101 -10.137268 3.366257 -16.665134 1.000487 -39.188046 0.992220 -4.881845 18.863702 0.090414 -2.743360 3.258346 0.069090 0.475030 0.139210 -3.506467 -2.751765 -8.083105 8.893636 -4.184691 22.230455 -2.138742 -2.102866 8.458298 1.618546 -0.004177 -11.170079 -1.959717 2.125393 32.580394 -4.213110 5.002040 -12.885050 -11.313114 -18.667513 5.123746 -41.812538 -18.078677 -8.513572 -4.011476 -66.533637 -3.671162 -3.852459 2.765499 0.627020 0.283530 -0.143750 -0.048120 8.151096 17.725522 7.588608 61.466971 9.633511 -10.850731 8.798132 33.588390 -0.887266 1.855317 -1.117052 -0.532390 0.488330 0.404240 -0.295960 
4.163420 16.372970 -0.450480 -7.847803 10.215529 0.622410 -15.212439 13.392044 3.124486 17.104622 -4.083353 -24.347012 -2.726854 6.509336 24.060247 -0.851158 5.200190 2.640128 0.002730 -0.196400 0.055340 18.181626 -10.402088 3.084397 -16.052793 1.006493 -36.812065 -0.150801 -4.915469 20.791467 0.081432 -2.954578 3.212449 0.059840 0.486620 0.162780 -3.558994 -2.458899 -7.982493 9.862873 -3.553423 20.672422 -0.792085 -1.755811 7.830587 1.149840 1.113018 -11.046027 0.238893 1.530189 31.830638 -5.148670 6.241950 -9.699970 -7.566606 -16.541793 5.206610 -41.949985 -17.834069 -6.735186 -15.486116 -67.441425 3.939525 -3.878624 2.997129 0.505040 0.335170 -0.157520 0.002830 5.312413 14.928793 6.783426 64.129628 9.589862 -9.544645 10.451527 29.899885 -0.630173 1.937512 -1.241281 -0.462210 0.410800 0.334110 -0.246530 
4.057660 16.435730 -0.395430 -8.235888 9.252681 1.014696 -15.245910 13.427719 3.184989 17.537045 -3.901541 -24.710624 -2.771913 6.603314 23.995101 -0.696682 5.128342 2.675279 0.067940 -0.055690 0.070420 18.131906 -10.643606 2.775673 -15.253672 0.765716 -33.980364 -1.662891 -4.516069 21.140472 0.082763 -3.020368 3.204111 0.109770 0.478800 0.182840 -3.425885 -2.311912 -7.824348 8.076803 -2.375314 19.266009 2.108158 -1.403371 7.509088 0.225730 2.622474 -10.817984 3.175778 1.019824 30.109711 -5.263350 7.634240 -6.754910 -1.235870 -13.732086 5.362385 -46.728375 -19.802744 -4.393102 -20.737351 -65.251739 7.006605 -3.861337 3.238733 0.339170 0.383760 -0.160170 0.068270 0.938385 11.344743 5.438725 69.183260 10.972806 -7.689149 9.557956 25.237070 -1.045235 2.035469 -1.428771 -0.364530 0.319700 0.215570 -0.178200 
3.913090 16.480350 -0.308390 -9.048510 7.376687 3.320912 -15.304754 13.004847 3.553477 20.790154 -3.808188 -26.676250 -6.438954 8.115011 23.507712 -0.653479 5.792307 2.451461 -0.057250 -0.231060 -0.031290 18.154907 -10.445975 2.668498 -15.739337 1.296887 -32.757661 1.134302 -5.231331 21.233690 0.151760 -3.242425 3.176290 0.039290 0.607190 0.181700 -3.323426 -2.115539 -7.880835 6.416787 -1.058794 15.514113 4.895429 -0.824634 5.676800 -0.793263 3.623571 -10.223519 5.043685 1.648123 29.866385 -4.740370 8.993850 -3.357910 1.751628 -9.780083 5.236737 -47.288085 -18.298398 -1.542354 -31.550306 -65.493556 14.691255 -3.961400 3.369023 0.312790 0.480240 -0.275170 0.062180 0.195590 6.638728 3.751527 70.247838 10.288951 -5.212664 8.629023 18.188947 -0.907504 2.071271 -1.368448 -0.442250 0.326260 0.295420 -0.189930 
3.773580 16.507970 -0.243520 -9.258869 4.300360 4.935330 -15.383825 12.808964 3.754787 22.222648 -3.471123 -27.705732 -8.169795 9.093451 23.796343 -0.520571 6.233296 2.323902 -0.141290 -0.291260 -0.116850 18.121668 -10.412515 2.518759 -14.102092 1.842067 -31.241342 0.771163 -4.732405 20.101180 0.237137 -3.135128 3.253034 0.013680 0.724190 0.212600 -3.107891 -1.921830 -7.779518 3.032708 0.701272 13.161586 8.658875 0.333387 3.948705 -1.788598 4.872244 -9.730045 7.461587 1.606156 28.214361 -4.664790 10.410580 0.391040 8.397990 -5.093456 5.265274 -55.076622 -19.444238 2.141264 -34.032928 -63.068294 15.829067 -4.006955 3.617081 0.170480 0.598880 -0.358450 0.081930 -4.143355 1.221110 2.014044 76.428972 10.307605 -3.382544 6.133866 12.284365 -1.190461 2.140167 -1.432203 -0.436520 0.293380 0.312730 -0.137200 
3.637910 16.544510 -0.200760 -10.399366 1.478093 5.961524 -15.389774 12.500671 4.048940 24.833644 -2.766003 -28.302966 -10.756417 10.303156 23.331927 -0.399455 6.767562 2.135762 -0.165630 -0.305440 -0.159300 18.170765 -10.375990 2.368267 -12.600374 2.350616 -29.269816 0.890939 -4.431319 19.074472 0.268114 -3.039623 3.321602 0.002350 0.765270 0.211800 -3.142627 -1.581520 -7.798573 2.650184 1.779737 11.577228 10.332780 1.289492 3.111291 -2.826161 5.084129 -9.466416 7.982396 2.105355 27.844847 -3.852050 11.041150 1.819720 12.187854 -2.326902 5.461758 -57.325977 -18.988920 3.865765 -35.727548 -62.506342 17.092977 -3.923599 3.815924 0.124240 0.625350 -0.388220 0.101660 -5.761648 -1.801024 1.084692 79.160890 10.056491 -2.699226 2.566523 10.439558 -1.438936 2.190987 -1.435526 -0.432300 0.281770 0.309350 -0.109520 
3.491940 16.572690 -0.179740 -11.211792 -1.226557 6.994366 -15.405411 12.337955 4.226218 26.969014 -1.977740 -28.301132 -11.862946 10.731088 21.967995 -0.333899 6.953989 2.091418 -0.123520 -0.267010 -0.154440 18.194064 -10.329971 2.254439 -11.798412 2.608985 -27.459681 0.931611 -4.113738 17.664783 0.252389 -2.918577 3.410006 0.007830 0.779150 0.207330 -3.135922 -1.457001 -7.795958 1.800492 2.779351 10.293085 12.249809 2.109698 2.576914 -4.280794 4.728081 -9.054872 7.353312 2.886664 27.996723 -2.881880 11.193460 1.815420 13.740023 -0.436606 5.707353 -55.936021 -17.905312 4.588337 -38.156764 -62.804625 19.213369 -3.773316 3.958590 0.142390 0.607890 -0.372650 0.160090 -4.237316 -3.507801 0.169773 78.204462 9.621808 -2.539792 -0.840305 9.335320 -1.603480 2.243512 -1.409797 -0.426560 0.297670 0.259320 -0.087340 
3.324830 16.564220 -0.145490 -11.763823 -3.178647 9.158008 -15.516855 12.064594 4.566309 29.490547 -1.322977 -29.709868 -13.780549 11.554324 20.800464 -0.465442 7.589767 1.904511 -0.282360 -0.496780 -0.281520 18.210629 -9.956894 2.055435 -12.349827 2.801279 -26.699992 1.732121 -4.174603 16.799553 0.361805 -2.935199 3.445294 -0.012360 0.973690 0.137080 -3.017077 -1.851482 -7.675479 0.515455 3.555192 6.682160 14.437286 2.236843 3.604803 -5.823746 3.116792 -7.985669 4.423107 5.101568 26.113204 -1.477750 10.475060 2.158390 11.970502 1.166142 5.615603 -48.537917 -15.909039 5.127711 -46.188208 -65.593302 26.212943 -3.929717 3.859743 0.192320 0.690680 -0.538230 0.113420 0.885518 -4.187454 -0.667580 71.820270 8.466506 -3.316283 -1.242103 9.762875 -1.598817 2.157537 -1.240927 -0.627090 0.464010 0.439390 -0.132670 
3.173740 16.530170 -0.116740 -11.882641 -4.770315 11.198332 -15.606356 11.969609 4.686581 30.243484 -0.993252 -31.142202 -13.911233 11.704904 20.269764 -0.548056 7.842632 1.870742 -0.357560 -0.607910 -0.364630 18.200204 -9.670709 1.956528 -12.692840 2.927827 -26.011168 2.862565 -4.162145 15.336325 0.447612 -2.991245 3.437699 0.010250 1.156830 0.144150 -2.892715 -2.279807 -7.482030 -1.557938 4.021938 3.906465 16.228265 2.222599 4.171685 -6.873602 2.252708 -7.074357 3.094176 6.716534 22.417675 -0.942520 9.979930 3.376010 10.093543 2.936399 5.426833 -41.605013 -13.572041 6.208395 -61.534100 -68.339865 38.961988 -4.124089 3.937504 0.130070 0.810810 -0.679890 0.119190 5.025973 -5.302973 -1.268457 66.495135 6.705522 -4.343723 1.049024 12.826806 -1.648965 2.059527 -1.233557 -0.726170 0.541810 0.531700 -0.122980 
3.044250 16.485170 -0.104310 -12.086574 -6.360130 11.990236 -15.643089 12.011897 4.664297 30.458817 -0.583979 -31.635567 -12.884920 11.690663 20.634553 -0.629823 7.921053 1.865428 -0.383100 -0.642920 -0.393360 18.183574 -9.614784 1.902840 -12.749924 2.948164 -25.247622 3.201064 -4.184635 15.033130 0.476449 -3.059593 3.428958 0.039180 1.247920 0.145610 -2.825042 -2.456792 -7.378709 -2.893367 4.759724 3.086133 17.339275 2.738606 4.631713 -7.268576 1.943019 -6.668042 2.631811 7.558701 20.700617 -1.001270 9.947430 3.205560 8.060675 3.613023 5.206539 -34.670561 -11.783773 7.354990 -83.941175 -69.590931 57.014450 -4.373694 3.758593 0.117350 0.875460 -0.738360 0.122470 7.931604 -5.472383 -1.170693 61.329485 4.818230 -5.103136 6.045324 16.596270 -1.051587 1.949938 -1.226565 -0.786450 0.605430 0.577250 -0.127110 
